<?xml version="1.0" encoding="UTF-8"?>
<svg width="1660px" height="772px" viewBox="0 0 1660 772" version="1.1" xmlns="http://www.w3.org/2000/svg" xmlns:xlink="http://www.w3.org/1999/xlink">
    <title>password-generator-pro</title>
    <defs>
        <linearGradient x1="50%" y1="58.8539057%" x2="50%" y2="158.853906%" id="linearGradient-1">
            <stop stop-color="#FEFEFE" offset="0%"></stop>
            <stop stop-color="#FEFEFE" offset="52.5895979%"></stop>
            <stop stop-color="#FEFEFE" offset="100%"></stop>
        </linearGradient>
    </defs>
    <g id="Page-1" stroke="none" stroke-width="1" fill="none" fill-rule="evenodd">
        <g id="password-generator-pro">
            <rect id="Rectangle" fill="#272727" x="0" y="0" width="1660" height="772"></rect>
            <g transform="translate(100.000000, 135.000000)">
                <path d="M125.012037,0 C56.0862386,0 0,56.0844087 0,124.988008 L0,375.060021 C0,443.937821 56.0844387,500.00003 125.012037,500.00003 L375.059991,500.00003 C443.937791,500.00003 500,443.939021 500,375.036021 L500,124.988008 C500,56.0862086 443.938991,0 375.035991,0 L125.012037,0 Z" id="terminal" fill="#2F3A3E"></path>
                <path d="M362.961155,211.435345 L362.004778,211.435345 C362.004778,149.756339 311.763001,99.5145631 250.083995,99.5145631 C188.404989,99.5145631 138.163213,149.756339 138.163213,211.435345 L137.206835,211.435345 C121.631598,211.435345 109.223301,224.153978 109.223301,239.41888 L109.223301,373.288841 C109.223301,388.864078 121.941933,401.272376 137.206835,401.272376 L362.962554,401.272376 C378.537791,401.272376 390.946088,388.553744 390.946088,373.288841 L390.946088,239.41888 C391.256604,223.843643 378.538109,211.435345 362.962554,211.435345 L362.961155,211.435345 Z M273.606406,348.16064 C274.239857,350.383921 273.606406,352.930127 272.339503,354.843009 C270.749674,356.755764 268.526457,357.699741 266.30324,357.699741 L233.861189,357.699741 C231.314983,357.699741 229.414755,356.743364 227.824926,354.843009 C226.235097,352.930254 225.912171,350.396576 226.558023,348.16064 L237.041038,307.782163 C228.135452,303.012676 222.099189,293.796755 222.099189,282.978287 C222.099189,267.40305 234.817821,254.994752 250.082723,254.994752 C265.347625,254.994752 278.066258,267.713385 278.066258,282.978287 C278.066258,293.784036 272.029995,303.012676 263.124409,307.782163 L273.606406,348.16064 Z M323.848182,211.435345 L176.318409,211.435345 C176.318409,170.732543 209.380493,137.670459 250.083296,137.670459 C290.786098,137.670459 323.848182,170.732543 323.848182,211.435345 Z" id="Shape" fill="url(#linearGradient-1)" fill-rule="nonzero"></path>
            </g>
            <text id="PASSWORD-GENERATOR" font-family="JetBrainsMonoRoman-ExtraBold, JetBrains Mono" font-size="161" font-weight="700" fill="#FFFFFF">
                <tspan x="690" y="332">PASSWORD</tspan>
                <tspan x="690" y="544">GENERATOR</tspan>
            </text>
        </g>
    </g>
</svg>