<?xml version="1.0" encoding="UTF-8"?>
<svg width="1372px" height="640px" viewBox="0 0 1372 640" version="1.1" xmlns="http://www.w3.org/2000/svg" xmlns:xlink="http://www.w3.org/1999/xlink">
    <title>password-generator-pro</title>
    <defs>
        <linearGradient x1="50%" y1="58.8539057%" x2="50%" y2="158.853906%" id="linearGradient-1">
            <stop stop-color="#FEFEFE" offset="0%"></stop>
            <stop stop-color="#FEFEFE" offset="52.5895979%"></stop>
            <stop stop-color="#FEFEFE" offset="100%"></stop>
        </linearGradient>
    </defs>
    <g id="Page-1" stroke="none" stroke-width="1" fill="none" fill-rule="evenodd">
        <g id="password-generator-pro">
            <rect id="Rectangle" fill="#272727" x="0" y="0" width="1372" height="640"></rect>
            <g id="Group" transform="translate(86.000000, 113.000000)">
                <g id="password-generator-pro">
                    <path d="M103.323202,0 C46.3556141,0 0,46.3541016 0,103.303341 L0,309.989366 C0,366.917283 46.3541264,413.253037 103.323202,413.253037 L309.989342,413.253037 C366.917258,413.253037 413.253012,366.918275 413.253012,309.969531 L413.253012,103.303341 C413.253012,46.3555893 366.91825,0 309.969506,0 L103.323202,0 Z" id="terminal" fill="#2F3A3E"></path>
                    <path d="M299.989581,174.752587 L299.199129,174.752587 C299.199129,123.774517 257.673999,82.2493859 206.695929,82.2493859 C155.717858,82.2493859 114.192728,123.774517 114.192728,174.752587 L113.402276,174.752587 C100.529249,174.752587 90.2737162,185.264613 90.2737162,197.881146 L90.2737162,308.525476 C90.2737162,321.398503 100.785742,331.654036 113.402276,331.654036 L299.990737,331.654036 C312.863765,331.654036 323.119297,321.14201 323.119297,308.525476 L323.119297,197.881146 C323.37594,185.008119 312.864027,174.752587 299.990737,174.752587 L299.989581,174.752587 Z M226.137342,287.756866 C226.660894,289.594421 226.137342,291.698876 225.09024,293.279885 C223.776236,294.860788 221.938734,295.640991 220.101232,295.640991 L193.287682,295.640991 C191.183227,295.640991 189.612677,294.850539 188.298674,293.279885 C186.984671,291.698981 186.717771,289.604881 187.251571,287.756866 L195.915846,254.383812 C188.555325,250.441802 183.566318,242.824788 183.566318,233.883259 C183.566318,221.010232 194.078344,210.754699 206.694877,210.754699 C219.311411,210.754699 229.823437,221.266725 229.823437,233.883259 C229.823437,242.814276 224.834429,250.441802 217.473909,254.383812 L226.137342,287.756866 Z M267.662473,174.752587 L145.728228,174.752587 C145.728228,141.111476 173.054239,113.785464 206.69535,113.785464 C240.336462,113.785464 267.662473,141.111476 267.662473,174.752587 Z" id="Shape" fill="url(#linearGradient-1)" fill-rule="nonzero"></path>
                </g>
                <g id="PASSWORD-GENERATOR" transform="translate(495.000000, 69.000000)" fill="#FFFFFF" fill-rule="nonzero">
                    <path d="M0.798404819,98.4699277 L0.798404819,1.3306747 L33.9322048,1.3306747 C40.7630016,1.3306747 46.7253945,2.60867686 51.8193836,5.16468117 C56.9133727,7.72068549 60.861041,11.3135072 63.6623884,15.9431462 C66.4637359,20.5727853 67.8644096,25.9938986 67.8644096,32.2064861 C67.8644096,38.3248174 66.4450233,43.7126639 63.6062506,48.3700253 C60.7674779,53.0273867 56.8267402,56.6423863 51.7840376,59.2150241 C46.7413349,61.7876618 40.790724,63.0739807 33.9322048,63.0739807 L20.7585253,63.0739807 L20.7585253,98.4699277 L0.798404819,98.4699277 Z M20.7585253,45.7752096 L33.9322048,45.7752096 C38.1598692,45.7752096 41.5454661,44.4888908 44.0889953,41.916253 C46.6325245,39.3436153 47.9042892,36.1215805 47.9042892,32.2501488 C47.9042892,28.3149556 46.6325245,25.0610402 44.0889953,22.4884024 C41.5454661,19.9157647 38.1598692,18.6294458 33.9322048,18.6294458 L20.7585253,18.6294458 L20.7585253,45.7752096 Z" id="Shape"></path>
                    <path d="M75.1831205,98.4699277 L99.0021976,1.3306747 L124.285017,1.3306747 L148.370229,98.4699277 L128.010906,98.4699277 L123.353545,76.5137952 L100.199805,76.5137952 L95.5424434,98.4699277 L75.1831205,98.4699277 Z M103.526492,60.5456988 L119.89379,60.5456988 L115.236429,37.1258241 C114.615447,33.7547815 113.972288,30.4059169 113.306951,27.0792301 C112.641613,23.7525434 112.131521,21.1577277 111.776675,19.2947831 C111.421828,21.1577277 110.956092,23.7303655 110.379466,27.0126964 C109.802841,30.2950273 109.159681,33.6217141 108.449988,36.9927566 L103.526492,60.5456988 Z" id="Shape"></path>
                    <path d="M191.617157,99.8006024 C184.78636,99.8006024 178.84268,98.647351 173.786116,96.3408482 C168.729552,94.0343454 164.826239,90.7963703 162.076178,86.6269229 C159.326117,82.4574755 157.951087,77.5339791 157.951087,71.8564337 L177.911207,71.8564337 C177.911207,75.1387647 179.175348,77.7335803 181.70363,79.6408807 C184.231912,81.5481811 187.669488,82.5018313 192.016359,82.5018313 C196.185806,82.5018313 199.445959,81.570359 201.796818,79.7074145 C204.147677,77.8444699 205.323106,75.2718321 205.323106,71.9895012 C205.323106,69.1507285 204.43599,66.7111582 202.661757,64.6707904 C200.887524,62.6304225 198.403598,61.255392 195.209978,60.5456988 L185.362986,58.2835518 C177.112802,56.3318956 170.703386,52.716896 166.134736,47.438553 C161.566086,42.16021 159.281761,35.7064378 159.281761,28.0772361 C159.281761,19.5609181 162.16489,12.7522992 167.931147,7.65137952 C173.697404,2.55045984 181.504029,0 191.351022,0 C201.286726,0 209.159885,2.46174819 214.970498,7.38524458 C220.78111,12.308741 223.686417,18.9399365 223.686417,27.2788313 L203.726296,27.2788313 C203.726296,24.1739237 202.639579,21.7343534 200.466143,19.9601205 C198.292708,18.1858876 195.165622,17.2987711 191.084887,17.2987711 C187.270286,17.2987711 184.342802,18.1858876 182.302434,19.9601205 C180.262066,21.7343534 179.241882,24.351347 179.241882,27.8111012 C179.241882,30.383739 180.10682,32.6680639 181.836698,34.6640759 C183.566575,36.660088 186.072679,38.0129406 189.35501,38.7226337 L199.068935,40.9847807 C207.673965,42.9364369 214.194271,46.4627249 218.629853,51.5636446 C223.065435,56.6645643 225.283227,63.1626924 225.283227,71.0580289 C225.283227,76.7355743 223.886018,81.7477823 221.091601,86.094653 C218.297184,90.4415237 214.393872,93.8125663 209.381664,96.2077807 C204.369456,98.6029952 198.447953,99.8006024 191.617157,99.8006024 Z" id="Path"></path>
                    <path d="M271.457639,99.8006024 C264.626842,99.8006024 258.683161,98.647351 253.626598,96.3408482 C248.570034,94.0343454 244.666721,90.7963703 241.91666,86.6269229 C239.166599,82.4574755 237.791569,77.5339791 237.791569,71.8564337 L257.751689,71.8564337 C257.751689,75.1387647 259.01583,77.7335803 261.544112,79.6408807 C264.072394,81.5481811 267.50997,82.5018313 271.856841,82.5018313 C276.026288,82.5018313 279.286441,81.570359 281.6373,79.7074145 C283.988159,77.8444699 285.163588,75.2718321 285.163588,71.9895012 C285.163588,69.1507285 284.276471,66.7111582 282.502239,64.6707904 C280.728006,62.6304225 278.24408,61.255392 275.05046,60.5456988 L265.203467,58.2835518 C256.953284,56.3318956 250.543868,52.716896 245.975218,47.438553 C241.406568,42.16021 239.122243,35.7064378 239.122243,28.0772361 C239.122243,19.5609181 242.005372,12.7522992 247.771629,7.65137952 C253.537886,2.55045984 261.344511,0 271.191504,0 C281.127208,0 289.000367,2.46174819 294.81098,7.38524458 C300.621592,12.308741 303.526899,18.9399365 303.526899,27.2788313 L283.566778,27.2788313 C283.566778,24.1739237 282.480061,21.7343534 280.306625,19.9601205 C278.13319,18.1858876 275.006104,17.2987711 270.925369,17.2987711 C267.110768,17.2987711 264.183284,18.1858876 262.142916,19.9601205 C260.102548,21.7343534 259.082364,24.351347 259.082364,27.8111012 C259.082364,30.383739 259.947302,32.6680639 261.67718,34.6640759 C263.407057,36.660088 265.913161,38.0129406 269.195492,38.7226337 L278.909417,40.9847807 C287.514447,42.9364369 294.034753,46.4627249 298.470335,51.5636446 C302.905917,56.6645643 305.123708,63.1626924 305.123708,71.0580289 C305.123708,76.7355743 303.7265,81.7477823 300.932083,86.094653 C298.137666,90.4415237 294.234354,93.8125663 289.222146,96.2077807 C284.209938,98.6029952 278.288435,99.8006024 271.457639,99.8006024 Z" id="Path"></path>
                    <path d="M321.757142,98.4699277 L312.708554,1.3306747 L329.075853,1.3306747 L333.999349,66.2676 C334.088061,67.5095631 334.176773,69.2616181 334.265484,71.5237651 C334.354196,73.785912 334.465086,76.1367707 334.598153,78.576341 C334.73122,81.0159112 334.797754,83.2115245 334.797754,85.1631807 C334.975178,83.2115245 335.174779,81.0159112 335.396558,78.576341 C335.618337,76.1367707 335.862294,73.785912 336.128429,71.5237651 C336.394564,69.2616181 336.571987,67.5095631 336.660699,66.2676 L343.846342,1.3306747 L359.016034,1.3306747 L365.935542,66.2676 C366.112965,67.5095631 366.312567,69.2616181 366.534346,71.5237651 C366.756125,73.785912 367.02226,76.1367707 367.332751,78.576341 C367.643241,81.0159112 367.887198,83.2115245 368.064622,85.1631807 C368.153333,83.2115245 368.242045,81.0159112 368.330757,78.576341 C368.419468,76.1367707 368.50818,73.785912 368.596892,71.5237651 C368.685603,69.2616181 368.774315,67.5095631 368.863027,66.2676 L373.38732,1.3306747 L389.887687,1.3306747 L380.173761,98.4699277 L359.415236,98.4699277 L352.89493,33.9322048 C352.717507,32.4241068 352.540084,30.4502727 352.36266,28.0107024 C352.185237,25.5711321 352.007814,23.0206723 351.83039,20.3593229 C351.652967,17.6979735 351.475544,15.3471149 351.29812,13.306747 C351.209409,15.3471149 351.076341,17.6979735 350.898918,20.3593229 C350.721495,23.0206723 350.544071,25.5711321 350.366648,28.0107024 C350.189225,30.4502727 350.011802,32.4241068 349.834378,33.9322048 L342.648735,98.4699277 L321.757142,98.4699277 Z" id="Path"></path>
                    <path d="M431.138602,99.8006024 C424.662652,99.8006024 419.029463,98.5808173 414.239034,96.141247 C409.448605,93.7016767 405.744894,90.2862783 403.1279,85.8950518 C400.510906,81.5038253 399.20241,76.3807277 399.20241,70.525759 L399.20241,29.2748434 C399.20241,23.4198747 400.510906,18.2967771 403.1279,13.9055506 C405.744894,9.5143241 409.448605,6.0989257 414.239034,3.65935542 C419.029463,1.21978514 424.662652,0 431.138602,0 C437.703264,0 443.358632,1.21978514 448.104705,3.65935542 C452.850778,6.0989257 456.532311,9.5143241 459.149305,13.9055506 C461.766298,18.2967771 463.074795,23.4198747 463.074795,29.2748434 L463.074795,70.525759 C463.074795,76.3807277 461.766298,81.5038253 459.149305,85.8950518 C456.532311,90.2862783 452.850778,93.7016767 448.104705,96.141247 C443.358632,98.5808173 437.703264,99.8006024 431.138602,99.8006024 Z M431.138602,82.5018313 C435.130627,82.5018313 438.124645,81.4594695 440.120657,79.3747458 C442.116669,77.2900221 443.114675,74.3403598 443.114675,70.525759 L443.114675,29.2748434 C443.114675,25.3715309 442.138847,22.3996908 440.18719,20.3593229 C438.235534,18.318955 435.219338,17.2987711 431.138602,17.2987711 C427.057867,17.2987711 424.041671,18.318955 422.090014,20.3593229 C420.138358,22.3996908 419.16253,25.3715309 419.16253,29.2748434 L419.16253,70.525759 C419.16253,74.3403598 420.160536,77.2900221 422.156548,79.3747458 C424.15256,81.4594695 427.146578,82.5018313 431.138602,82.5018313 Z" id="Shape"></path>
                    <path d="M479.708229,98.4699277 L479.708229,1.3306747 L510.979084,1.3306747 C517.898593,1.3306747 523.886629,2.52828193 528.943193,4.92349639 C533.999757,7.31871084 537.925247,10.7341092 540.719664,15.1696916 C543.514081,19.6052739 544.911289,24.839261 544.911289,30.871653 C544.911289,37.1701799 543.381013,42.8033695 540.320461,47.7712217 C537.25991,52.7390739 533.11264,56.3318956 527.878653,58.5496867 L546.241964,98.4699277 L524.551966,98.4699277 L508.850005,61.743306 L499.535282,61.743306 L499.535282,98.4699277 L479.708229,98.4699277 Z M499.535282,44.4445349 L510.979084,44.4445349 C515.414667,44.4445349 518.852243,43.3356394 521.291813,41.1178482 C523.731384,38.900057 524.951169,35.7951494 524.951169,31.8031253 C524.951169,27.6336779 523.731384,24.3957028 521.291813,22.0892 C518.852243,19.7826972 515.414667,18.6294458 510.979084,18.6294458 L499.535282,18.6294458 L499.535282,44.4445349 Z" id="Shape"></path>
                    <path d="M559.282576,98.4699277 L559.282576,1.3306747 L590.819566,1.3306747 C597.561651,1.3306747 603.438798,2.61699357 608.451006,5.18963133 C613.463214,7.76226908 617.366527,11.3772687 620.160943,16.0346301 C622.95536,20.6919916 624.352569,26.1699357 624.352569,32.4684627 L624.352569,67.1990723 C624.352569,73.4088876 622.95536,78.8646538 620.160943,83.5663711 C617.366527,88.2680884 613.463214,91.9274438 608.451006,94.5444373 C603.438798,97.1614309 597.561651,98.4699277 590.819566,98.4699277 L559.282576,98.4699277 Z M579.242696,80.5058193 L590.819566,80.5058193 C594.81159,80.5058193 598.071743,79.2638562 600.600025,76.7799301 C603.128307,74.296004 604.392448,71.1023847 604.392448,67.1990723 L604.392448,32.4684627 C604.392448,28.5651502 603.128307,25.3937088 600.600025,22.9541386 C598.071743,20.5145683 594.81159,19.2947831 590.819566,19.2947831 L579.242696,19.2947831 L579.242696,80.5058193 Z" id="Shape"></path>
                    <path d="M32.5349964,275.01988 C26.0146904,275.01988 20.3149671,273.800094 15.4358265,271.360524 C10.5566859,268.920954 6.76426305,265.505555 4.05855783,261.114329 C1.35285261,256.723102 -9.39628562e-14,251.600005 -9.39628562e-14,245.745036 L-9.39628562e-14,204.49412 C-9.39628562e-14,198.55044 1.35285261,193.405165 4.05855783,189.058294 C6.76426305,184.711423 10.5566859,181.318203 15.4358265,178.878633 C20.3149671,176.439062 26.0146904,175.219277 32.5349964,175.219277 C39.0553024,175.219277 44.7328478,176.439062 49.5676325,178.878633 C54.4024173,181.318203 58.1726622,184.701374 60.8783675,189.028146 C63.5840727,193.354918 64.9369253,198.510243 64.9369253,204.49412 L44.9768048,204.49412 C44.9768048,200.590808 43.8817704,197.618968 41.6917017,195.5786 C39.5016329,193.538232 36.4189032,192.518048 32.4435125,192.518048 C28.4681218,192.518048 25.3937088,193.547242 23.2202735,195.605629 C21.0468382,197.664017 19.9601205,200.626847 19.9601205,204.49412 L19.9601205,245.745036 C19.9601205,249.552706 21.0468382,252.500636 23.2202735,254.588825 C25.3937088,256.677014 28.4681218,257.721108 32.4435125,257.721108 C36.4189032,257.721108 39.5016329,256.672163 41.6917017,254.574271 C43.8817704,252.476379 44.9768048,249.515281 44.9768048,245.690977 L44.9768048,237.361786 L30.6055181,237.361786 L30.6055181,220.462217 L64.9369253,220.462217 L64.9369253,245.745036 C64.9369253,251.63743 63.5840727,256.769884 60.8783675,261.142398 C58.1726622,265.514912 54.4024173,268.920954 49.5676325,271.360524 C44.7328478,273.800094 39.0553024,275.01988 32.5349964,275.01988 Z" id="Path"></path>
                    <polygon id="Path" points="82.5018313 273.689205 82.5018313 176.549952 142.382193 176.549952 142.382193 193.848723 102.062749 193.848723 102.062749 215.671788 137.724831 215.671788 137.724831 232.172154 102.062749 232.172154 102.062749 256.390434 142.382193 256.390434 142.382193 273.689205"></polygon>
                    <path d="M159.680964,273.689205 L159.680964,176.549952 L182.967771,176.549952 L208.117523,251.733072 C207.851388,248.450741 207.540897,244.658318 207.186051,240.355804 C206.831204,236.053289 206.542891,231.750774 206.321112,227.448259 C206.099333,223.145744 205.988443,219.486389 205.988443,216.470193 L205.988443,176.549952 L223.553349,176.549952 L223.553349,273.689205 L200.266542,273.689205 L175.382925,198.506084 C175.64906,201.344857 175.915195,204.7159 176.18133,208.619212 C176.447465,212.522524 176.691422,216.470193 176.913201,220.462217 C177.13498,224.454241 177.24587,228.002707 177.24587,231.107614 L177.24587,273.689205 L159.680964,273.689205 Z" id="Path"></path>
                    <polygon id="Path" points="242.182795 273.689205 242.182795 176.549952 302.063157 176.549952 302.063157 193.848723 261.743713 193.848723 261.743713 215.671788 297.405795 215.671788 297.405795 232.172154 261.743713 232.172154 261.743713 256.390434 302.063157 256.390434 302.063157 273.689205"></polygon>
                    <path d="M320.027265,273.689205 L320.027265,176.549952 L351.29812,176.549952 C358.217629,176.549952 364.205665,177.747559 369.262229,180.142773 C374.318793,182.537988 378.244283,185.953386 381.0387,190.388969 C383.833117,194.824551 385.230325,200.058538 385.230325,206.09093 C385.230325,212.389457 383.700049,218.022647 380.639498,222.990499 C377.578946,227.958351 373.431676,231.551173 368.197689,233.768964 L386.561,273.689205 L364.871002,273.689205 L349.169041,236.962583 L339.854318,236.962583 L339.854318,273.689205 L320.027265,273.689205 Z M339.854318,219.663812 L351.29812,219.663812 C355.733703,219.663812 359.171279,218.554916 361.610849,216.337125 C364.05042,214.119334 365.270205,211.014427 365.270205,207.022402 C365.270205,202.852955 364.05042,199.61498 361.610849,197.308477 C359.171279,195.001974 355.733703,193.848723 351.29812,193.848723 L339.854318,193.848723 L339.854318,219.663812 Z" id="Shape"></path>
                    <path d="M394.545048,273.689205 L418.364125,176.549952 L443.646945,176.549952 L467.732157,273.689205 L447.372834,273.689205 L442.715472,251.733072 L419.561733,251.733072 L414.904371,273.689205 L394.545048,273.689205 Z M422.888419,235.764976 L439.255718,235.764976 L434.598357,212.345101 C433.977375,208.974059 433.334216,205.625194 432.668878,202.298507 C432.003541,198.97182 431.493449,196.377005 431.138602,194.51406 C430.783756,196.377005 430.31802,198.949643 429.741394,202.231973 C429.164768,205.514304 428.521609,208.840991 427.811916,212.212034 L422.888419,235.764976 Z" id="Shape"></path>
                    <polygon id="Path" points="500.999024 273.689205 500.999024 194.51406 476.381542 194.51406 476.381542 176.549952 545.576627 176.549952 545.576627 194.51406 520.959145 194.51406 520.959145 273.689205"></polygon>
                    <path d="M590.819566,275.01988 C584.343616,275.01988 578.710427,273.800094 573.919998,271.360524 C569.129569,268.920954 565.425857,265.505555 562.808864,261.114329 C560.19187,256.723102 558.883373,251.600005 558.883373,245.745036 L558.883373,204.49412 C558.883373,198.639152 560.19187,193.516054 562.808864,189.124828 C565.425857,184.733601 569.129569,181.318203 573.919998,178.878633 C578.710427,176.439062 584.343616,175.219277 590.819566,175.219277 C597.384228,175.219277 603.039596,176.439062 607.785669,178.878633 C612.531742,181.318203 616.213275,184.733601 618.830269,189.124828 C621.447262,193.516054 622.755759,198.639152 622.755759,204.49412 L622.755759,245.745036 C622.755759,251.600005 621.447262,256.723102 618.830269,261.114329 C616.213275,265.505555 612.531742,268.920954 607.785669,271.360524 C603.039596,273.800094 597.384228,275.01988 590.819566,275.01988 Z M590.819566,257.721108 C594.81159,257.721108 597.805608,256.678747 599.80162,254.594023 C601.797633,252.509299 602.795639,249.559637 602.795639,245.745036 L602.795639,204.49412 C602.795639,200.590808 601.81981,197.618968 599.868154,195.5786 C597.916498,193.538232 594.900302,192.518048 590.819566,192.518048 C586.738831,192.518048 583.722635,193.538232 581.770978,195.5786 C579.819322,197.618968 578.843494,200.590808 578.843494,204.49412 L578.843494,245.745036 C578.843494,249.559637 579.8415,252.509299 581.837512,254.594023 C583.833524,256.678747 586.827542,257.721108 590.819566,257.721108 Z" id="Shape"></path>
                    <path d="M639.389193,273.689205 L639.389193,176.549952 L670.660048,176.549952 C677.579557,176.549952 683.567593,177.747559 688.624157,180.142773 C693.68072,182.537988 697.606211,185.953386 700.400628,190.388969 C703.195045,194.824551 704.592253,200.058538 704.592253,206.09093 C704.592253,212.389457 703.061977,218.022647 700.001425,222.990499 C696.940873,227.958351 692.793604,231.551173 687.559617,233.768964 L705.922928,273.689205 L684.23293,273.689205 L668.530969,236.962583 L659.216246,236.962583 L659.216246,273.689205 L639.389193,273.689205 Z M659.216246,219.663812 L670.660048,219.663812 C675.095631,219.663812 678.533207,218.554916 680.972777,216.337125 C683.412347,214.119334 684.632133,211.014427 684.632133,207.022402 C684.632133,202.852955 683.412347,199.61498 680.972777,197.308477 C678.533207,195.001974 675.095631,193.848723 670.660048,193.848723 L659.216246,193.848723 L659.216246,219.663812 Z" id="Shape"></path>
                </g>
            </g>
        </g>
    </g>
</svg>