<?xml version="1.0" encoding="UTF-8"?>
<svg width="1372px" height="640px" viewBox="0 0 1372 640" version="1.1" xmlns="http://www.w3.org/2000/svg" xmlns:xlink="http://www.w3.org/1999/xlink">
    <title>password-generator-pro</title>
    <defs>
        <linearGradient x1="50%" y1="58.8539057%" x2="50%" y2="158.853906%" id="linearGradient-1">
            <stop stop-color="#FEFEFE" offset="0%"></stop>
            <stop stop-color="#FEFEFE" offset="52.5895979%"></stop>
            <stop stop-color="#FEFEFE" offset="100%"></stop>
        </linearGradient>
    </defs>
    <g id="Page-1" stroke="none" stroke-width="1" fill="none" fill-rule="evenodd">
        <g id="password-generator-pro">
            <polygon id="Path" fill="#272727" points="0 0 1372 0 1372 640 0 640"></polygon>
            <g id="Group" transform="translate(136.000000, 131.000000)">
                <g id="password-generator-pro">
                    <path d="M94.6401466,0 C42.45999,0 0,42.4586046 0,94.6219553 L0,283.93854 C0,336.08236 42.4586273,378.524158 94.6401466,378.524158 L283.938518,378.524158 C336.082337,378.524158 378.524136,336.083268 378.524136,283.920372 L378.524136,94.6219553 C378.524136,42.4599673 336.083245,0 283.920349,0 L94.6401466,0 Z" id="terminal" fill="#2F3A3E"></path>
                    <path d="M274.779115,160.066763 L274.055091,160.066763 C274.055091,113.372778 236.019641,75.337328 189.325656,75.337328 C142.631671,75.337328 104.596221,113.372778 104.596221,160.066763 L103.872197,160.066763 C92.0809913,160.066763 82.6873112,169.695381 82.6873112,181.251649 L82.6873112,282.597672 C82.6873112,294.388878 92.3159296,303.782558 103.872197,303.782558 L274.780174,303.782558 C286.57138,303.782558 295.96506,294.15394 295.96506,282.597672 L295.96506,181.251649 C296.200136,169.460443 286.571621,160.066763 274.780174,160.066763 L274.779115,160.066763 Z M207.133256,263.574411 C207.61281,265.257541 207.133256,267.185143 206.17415,268.633287 C204.970572,270.081335 203.28749,270.795971 201.604407,270.795971 L177.044209,270.795971 C175.116608,270.795971 173.678044,270.071947 172.474467,268.633287 C171.270889,267.185239 171.026419,265.267122 171.51536,263.574411 L179.451508,233.005954 C172.709549,229.395223 168.139807,222.418326 168.139807,214.228223 C168.139807,202.437017 177.768426,193.043337 189.324693,193.043337 C200.880961,193.043337 210.50958,202.671955 210.50958,214.228223 C210.50958,222.408697 205.939837,229.395223 199.197879,233.005954 L207.133256,263.574411 Z M245.168706,160.066763 L133.481547,160.066763 C133.481547,129.252777 158.511141,104.223183 189.325127,104.223183 C220.139113,104.223183 245.168706,129.252777 245.168706,160.066763 Z" id="Shape" fill="url(#linearGradient-1)" fill-rule="nonzero"></path>
                </g>
                <g id="PASSWORD-GENERATOR" transform="translate(453.401286, 63.201391)" fill="#FFFFFF" fill-rule="nonzero">
                    <path d="M0.73130863,90.1947311 L0.73130863,1.21884772 L31.0806168,1.21884772 C37.3373684,1.21884772 42.7986949,2.38944938 47.4645963,4.7306527 C52.1304977,7.07185602 55.7464126,10.3627449 58.312341,14.6033192 C60.8782694,18.8438936 62.1612336,23.8094284 62.1612336,29.4999236 C62.1612336,35.1040839 60.8611293,40.0391475 58.2609209,44.3051145 C55.6607124,48.5710815 52.0511457,51.8822845 47.4322207,54.2387234 C42.8132957,56.5951623 37.3627611,57.7733818 31.0806168,57.7733818 L19.0140244,57.7733818 L19.0140244,90.1947311 L0.73130863,90.1947311 Z M19.0140244,41.9283615 L31.0806168,41.9283615 C34.9529975,41.9283615 38.0540762,40.750142 40.3838529,38.3937031 C42.7136295,36.0372642 43.8785178,33.0860022 43.8785178,29.5399171 C43.8785178,25.9354289 42.7136295,22.9549653 40.3838529,20.5985264 C38.0540762,18.2420875 34.9529975,17.063868 31.0806168,17.063868 L19.0140244,17.063868 L19.0140244,41.9283615 Z" id="Shape"></path>
                    <path d="M68.864896,90.1947311 L90.6822701,1.21884772 L113.840377,1.21884772 L135.90152,90.1947311 L117.25315,90.1947311 L112.987183,70.0837437 L91.7792331,70.0837437 L87.5132661,90.1947311 L68.864896,90.1947311 Z M94.8263524,55.4575711 L109.818179,55.4575711 L105.552212,34.0058513 C104.983417,30.9181038 104.394307,27.8506703 103.784883,24.803551 C103.175459,21.7564317 102.708234,19.3796787 102.383208,17.6732919 C102.058182,19.3796787 101.631585,21.7361176 101.103418,24.7426087 C100.575251,27.7490997 99.986141,30.796219 99.3360889,33.8839665 L94.8263524,55.4575711 Z" id="Shape"></path>
                    <path d="M175.514071,91.4135788 C169.25732,91.4135788 163.813133,90.3572441 159.181512,88.2445747 C154.549891,86.1319053 150.974604,83.1660426 148.455652,79.3469864 C145.9367,75.5279302 144.677224,71.0181936 144.677224,65.8177767 L162.95994,65.8177767 C162.95994,68.8242678 164.117845,71.2010208 166.433656,72.9480359 C168.749466,74.6950509 171.898156,75.5685585 175.879726,75.5685585 C179.698782,75.5685585 182.684959,74.715365 184.838256,73.0089782 C186.991554,71.3025914 188.068203,68.9461525 188.068203,65.9396615 C188.068203,63.339453 187.255638,61.1048989 185.630507,59.235999 C184.005377,57.3670992 181.730195,56.1076232 178.80496,55.4575711 L169.785487,53.38553 C162.228631,51.5978867 156.357848,48.2866837 152.173137,43.4519211 C147.988427,38.6171585 145.896072,32.7057471 145.896072,25.7176868 C145.896072,17.9170614 148.536908,11.680624 153.818582,7.00837437 C159.100255,2.33612479 166.250829,0 175.270302,0 C184.371031,0 191.582547,2.25486828 196.904849,6.76460483 C202.22715,11.2743414 204.888301,17.3482658 204.888301,24.9863782 L186.605585,24.9863782 C186.605585,22.1424002 185.610193,19.907846 183.619409,18.2827158 C181.628624,16.6575855 178.764332,15.8450203 175.026532,15.8450203 C171.532502,15.8450203 168.851037,16.6575855 166.982137,18.2827158 C165.113237,19.907846 164.178787,22.3049132 164.178787,25.4739173 C164.178787,27.8303562 164.971038,29.9227115 166.555541,31.750983 C168.140043,33.5792546 170.435539,34.8184164 173.44203,35.4684686 L182.339618,37.5405097 C190.2215,39.328153 196.193854,42.5580995 200.25668,47.230349 C204.319506,51.9025986 206.350918,57.8546383 206.350918,65.0864681 C206.350918,70.286885 205.071128,74.8778781 202.511548,78.8594473 C199.951968,82.8410165 196.376681,85.928764 191.785688,88.1226899 C187.194695,90.3166158 181.770823,91.4135788 175.514071,91.4135788 Z" id="Path"></path>
                    <path d="M248.644934,91.4135788 C242.388183,91.4135788 236.943996,90.3572441 232.312375,88.2445747 C227.680754,86.1319053 224.105467,83.1660426 221.586515,79.3469864 C219.067563,75.5279302 217.808087,71.0181936 217.808087,65.8177767 L236.090803,65.8177767 C236.090803,68.8242678 237.248708,71.2010208 239.564519,72.9480359 C241.880329,74.6950509 245.029019,75.5685585 249.010589,75.5685585 C252.829645,75.5685585 255.815822,74.715365 257.969119,73.0089782 C260.122417,71.3025914 261.199066,68.9461525 261.199066,65.9396615 C261.199066,63.339453 260.386501,61.1048989 258.76137,59.235999 C257.13624,57.3670992 254.861058,56.1076232 251.935823,55.4575711 L242.91635,53.38553 C235.359494,51.5978867 229.488711,48.2866837 225.304,43.4519211 C221.11929,38.6171585 219.026935,32.7057471 219.026935,25.7176868 C219.026935,17.9170614 221.667771,11.680624 226.949445,7.00837437 C232.231118,2.33612479 239.381692,0 248.401165,0 C257.501894,0 264.71341,2.25486828 270.035712,6.76460483 C275.358013,11.2743414 278.019164,17.3482658 278.019164,24.9863782 L259.736448,24.9863782 C259.736448,22.1424002 258.741056,19.907846 256.750272,18.2827158 C254.759487,16.6575855 251.895195,15.8450203 248.157395,15.8450203 C244.663365,15.8450203 241.9819,16.6575855 240.113,18.2827158 C238.2441,19.907846 237.30965,22.3049132 237.30965,25.4739173 C237.30965,27.8303562 238.101902,29.9227115 239.686404,31.750983 C241.270906,33.5792546 243.566402,34.8184164 246.572893,35.4684686 L255.470481,37.5405097 C263.352363,39.328153 269.324717,42.5580995 273.387543,47.230349 C277.450369,51.9025986 279.481781,57.8546383 279.481781,65.0864681 C279.481781,70.286885 278.201991,74.8778781 275.642411,78.8594473 C273.082831,82.8410165 269.507544,85.928764 264.916551,88.1226899 C260.325558,90.3166158 254.901686,91.4135788 248.644934,91.4135788 Z" id="Path"></path>
                    <path d="M294.717378,90.1947311 L286.429213,1.21884772 L301.42104,1.21884772 L305.930777,60.6986163 C306.012033,61.8362075 306.09329,63.4410237 306.174546,65.5130648 C306.255803,67.5851059 306.357374,69.7384035 306.479258,71.9729577 C306.601143,74.2075118 306.662086,76.2186106 306.662086,78.0062539 C306.824599,76.2186106 307.007426,74.2075118 307.210567,71.9729577 C307.413708,69.7384035 307.637164,67.5851059 307.880933,65.5130648 C308.124703,63.4410237 308.287216,61.8362075 308.368472,60.6986163 L314.95025,1.21884772 L328.845114,1.21884772 L335.183122,60.6986163 C335.345635,61.8362075 335.528462,63.4410237 335.731604,65.5130648 C335.934745,67.5851059 336.178514,69.7384035 336.462912,71.9729577 C336.74731,74.2075118 336.970765,76.2186106 337.133279,78.0062539 C337.214535,76.2186106 337.295792,74.2075118 337.377048,71.9729577 C337.458305,69.7384035 337.539561,67.5851059 337.620818,65.5130648 C337.702074,63.4410237 337.783331,61.8362075 337.864587,60.6986163 L342.008669,1.21884772 L357.122381,1.21884772 L348.224793,90.1947311 L329.210768,90.1947311 L323.238415,31.0806168 C323.075902,29.699256 322.913388,27.8912986 322.750875,25.6567444 C322.588362,23.4221903 322.425849,21.0860655 322.263336,18.6483701 C322.100823,16.2106746 321.93831,14.057377 321.775797,12.1884772 C321.694541,14.057377 321.572656,16.2106746 321.410143,18.6483701 C321.24763,21.0860655 321.085117,23.4221903 320.922604,25.6567444 C320.760091,27.8912986 320.597578,29.699256 320.435065,31.0806168 L313.853287,90.1947311 L294.717378,90.1947311 Z" id="Path"></path>
                    <path d="M394.90666,91.4135788 C388.974935,91.4135788 383.815146,90.2963017 379.427294,88.0617475 C375.039443,85.8271934 371.646983,82.6988176 369.249916,78.6766201 C366.852849,74.6544227 365.654315,69.961859 365.654315,64.598929 L365.654315,26.8146498 C365.654315,21.4517198 366.852849,16.7591561 369.249916,12.7369586 C371.646983,8.71476118 375.039443,5.58638537 379.427294,3.35183122 C383.815146,1.11727707 388.974935,0 394.90666,0 C400.919642,0 406.099745,1.11727707 410.446969,3.35183122 C414.794192,5.58638537 418.166338,8.71476118 420.563405,12.7369586 C422.960472,16.7591561 424.159005,21.4517198 424.159005,26.8146498 L424.159005,64.598929 C424.159005,69.961859 422.960472,74.6544227 420.563405,78.6766201 C418.166338,82.6988176 414.794192,85.8271934 410.446969,88.0617475 C406.099745,90.2963017 400.919642,91.4135788 394.90666,91.4135788 Z M394.90666,75.5685585 C398.563203,75.5685585 401.305611,74.6137944 403.133882,72.7042663 C404.962154,70.7947382 405.87629,68.0929591 405.87629,64.598929 L405.87629,26.8146498 C405.87629,23.2393631 404.982468,20.5172699 403.194825,18.6483701 C401.407181,16.7794702 398.64446,15.8450203 394.90666,15.8450203 C391.168861,15.8450203 388.406139,16.7794702 386.618496,18.6483701 C384.830852,20.5172699 383.937031,23.2393631 383.937031,26.8146498 L383.937031,64.598929 C383.937031,68.0929591 384.851167,70.7947382 386.679438,72.7042663 C388.50771,74.6137944 391.250117,75.5685585 394.90666,75.5685585 Z" id="Shape"></path>
                    <path d="M439.394602,90.1947311 L439.394602,1.21884772 L468.037523,1.21884772 C474.375531,1.21884772 479.860346,2.31581066 484.491967,4.50973655 C489.123589,6.70366244 492.71919,9.83203825 495.27877,13.894864 C497.83835,17.9576897 499.11814,22.751824 499.11814,28.277267 C499.11814,34.0464796 497.716465,39.2062682 494.913115,43.756633 C492.109766,48.3069978 488.311024,51.5978867 483.516889,53.6292995 L500.336988,90.1947311 L480.46977,90.1947311 L466.087367,56.5545341 L457.555433,56.5545341 L457.555433,90.1947311 L439.394602,90.1947311 Z M457.555433,40.7095137 L468.037523,40.7095137 C472.100349,40.7095137 475.249039,39.6938073 477.483593,37.6623945 C479.718147,35.6309816 480.835424,32.7870036 480.835424,29.1304604 C480.835424,25.3114043 479.718147,22.3455415 477.483593,20.2328721 C475.249039,18.1202027 472.100349,17.063868 468.037523,17.063868 L457.555433,17.063868 L457.555433,40.7095137 Z" id="Shape"></path>
                    <path d="M512.281695,90.1947311 L512.281695,1.21884772 L541.168386,1.21884772 C547.343881,1.21884772 552.727126,2.39706718 557.318119,4.7535061 C561.909112,7.10994502 565.484398,10.421148 568.043978,14.687115 C570.603559,18.953082 571.883349,23.9706718 571.883349,29.7398843 L571.883349,61.5518097 C571.883349,67.2397657 570.603559,72.2370414 568.043978,76.5436366 C565.484398,80.8502319 561.909112,84.2020631 557.318119,86.5991303 C552.727126,88.9961975 547.343881,90.1947311 541.168386,90.1947311 L512.281695,90.1947311 Z M530.564411,73.7402869 L541.168386,73.7402869 C544.824929,73.7402869 547.811106,72.6026957 550.126917,70.3275133 C552.442728,68.0523309 553.600633,65.1270963 553.600633,61.5518097 L553.600633,29.7398843 C553.600633,26.1645977 552.442728,23.2596773 550.126917,21.0251231 C547.811106,18.790569 544.824929,17.6732919 541.168386,17.6732919 L530.564411,17.6732919 L530.564411,73.7402869 Z" id="Shape"></path>
                    <path d="M29.8008267,251.907812 C23.8284729,251.907812 18.6077418,250.790535 14.1386335,248.555981 C9.66952522,246.321427 6.19580923,243.193051 3.71748554,239.170854 C1.23916185,235.148656 -8.6066424e-14,230.456092 -8.6066424e-14,225.093163 L-8.6066424e-14,187.308883 C-8.6066424e-14,181.864697 1.23916185,177.151819 3.71748554,173.17025 C6.19580923,169.188681 9.66952522,166.080619 14.1386335,163.846065 C18.6077418,161.611511 23.8284729,160.494234 29.8008267,160.494234 C35.7731805,160.494234 40.9735974,161.611511 45.4020775,163.846065 C49.8305575,166.080619 53.2839594,169.179476 55.7622831,173.142635 C58.2406067,177.105795 59.4797686,181.827877 59.4797686,187.308883 L41.1970528,187.308883 C41.1970528,183.733597 40.1940427,181.011503 38.1880225,179.142604 C36.1820023,177.273704 33.3583385,176.339254 29.7170309,176.339254 C26.0757233,176.339254 23.2596773,177.281956 21.2688927,179.167361 C19.2781081,181.052767 18.2827158,183.766607 18.2827158,187.308883 L18.2827158,225.093163 C18.2827158,228.580844 19.2781081,231.281037 21.2688927,233.193739 C23.2596773,235.106441 26.0757233,236.062792 29.7170309,236.062792 C33.3583385,236.062792 36.1820023,235.101997 38.1880225,233.180408 C40.1940427,231.258818 41.1970528,228.546564 41.1970528,225.043647 L41.1970528,217.414422 L28.0334975,217.414422 L28.0334975,201.935056 L59.4797686,201.935056 L59.4797686,225.093163 C59.4797686,230.490373 58.2406067,235.191506 55.7622831,239.196564 C53.2839594,243.201621 49.8305575,246.321427 45.4020775,248.555981 C40.9735974,250.790535 35.7731805,251.907812 29.8008267,251.907812 Z" id="Path"></path>
                    <polygon id="Path" points="75.5685585 250.688965 75.5685585 161.713081 130.416706 161.713081 130.416706 177.558102 93.4856199 177.558102 93.4856199 197.547204 126.150739 197.547204 126.150739 212.660916 93.4856199 212.660916 93.4856199 234.843944 130.416706 234.843944 130.416706 250.688965"></polygon>
                    <path d="M146.261726,250.688965 L146.261726,161.713081 L167.591561,161.713081 L190.627783,230.577977 C190.384013,227.571486 190.099616,224.09777 189.77459,220.156829 C189.449563,216.215888 189.18548,212.274947 188.982339,208.334006 C188.779197,204.393065 188.677627,201.041234 188.677627,198.278513 L188.677627,161.713081 L204.766416,161.713081 L204.766416,250.688965 L183.436581,250.688965 L160.644129,181.824069 C160.887899,184.424277 161.131668,187.512025 161.375438,191.087311 C161.619207,194.662598 161.842663,198.278513 162.045804,201.935056 C162.248945,205.591599 162.350516,208.84186 162.350516,211.685838 L162.350516,250.688965 L146.261726,250.688965 Z" id="Path"></path>
                    <polygon id="Path" points="221.830284 250.688965 221.830284 161.713081 276.678432 161.713081 276.678432 177.558102 239.747346 177.558102 239.747346 197.547204 272.412465 197.547204 272.412465 212.660916 239.747346 212.660916 239.747346 234.843944 276.678432 234.843944 276.678432 250.688965"></polygon>
                    <path d="M293.132876,250.688965 L293.132876,161.713081 L321.775797,161.713081 C328.113805,161.713081 333.59862,162.810044 338.230241,165.00397 C342.861863,167.197896 346.457464,170.326272 349.017044,174.389098 C351.576624,178.451923 352.856414,183.246058 352.856414,188.771501 C352.856414,194.540713 351.454739,199.700502 348.651389,204.250867 C345.84804,208.801231 342.049298,212.09212 337.255163,214.123533 L354.075262,250.688965 L334.208044,250.688965 L319.825641,217.048768 L311.293707,217.048768 L311.293707,250.688965 L293.132876,250.688965 Z M311.293707,201.203747 L321.775797,201.203747 C325.838623,201.203747 328.987313,200.188041 331.221867,198.156628 C333.456421,196.125215 334.573698,193.281237 334.573698,189.624694 C334.573698,185.805638 333.456421,182.839775 331.221867,180.727106 C328.987313,178.614436 325.838623,177.558102 321.775797,177.558102 L311.293707,177.558102 L311.293707,201.203747 Z" id="Shape"></path>
                    <path d="M361.388348,250.688965 L383.205722,161.713081 L406.363829,161.713081 L428.424973,250.688965 L409.776602,250.688965 L405.510635,230.577977 L384.302685,230.577977 L380.036718,250.688965 L361.388348,250.688965 Z M387.349804,215.951805 L402.341631,215.951805 L398.075664,194.500085 C397.506869,191.412337 396.917759,188.344904 396.308335,185.297785 C395.698911,182.250665 395.231686,179.873912 394.90666,178.167525 C394.581634,179.873912 394.155038,182.230351 393.62687,185.236842 C393.098703,188.243333 392.509593,191.290453 391.859541,194.3782 L387.349804,215.951805 Z" id="Shape"></path>
                    <polygon id="Path" points="458.896165 250.688965 458.896165 178.167525 436.347483 178.167525 436.347483 161.713081 499.727564 161.713081 499.727564 178.167525 477.178881 178.167525 477.178881 250.688965"></polygon>
                    <path d="M541.168386,251.907812 C535.236661,251.907812 530.076872,250.790535 525.68902,248.555981 C521.301169,246.321427 517.908709,243.193051 515.511642,239.170854 C513.114575,235.148656 511.916041,230.456092 511.916041,225.093163 L511.916041,187.308883 C511.916041,181.945953 513.114575,177.25339 515.511642,173.231192 C517.908709,169.208995 521.301169,166.080619 525.68902,163.846065 C530.076872,161.611511 535.236661,160.494234 541.168386,160.494234 C547.181368,160.494234 552.361471,161.611511 556.708695,163.846065 C561.055918,166.080619 564.428064,169.208995 566.825131,173.231192 C569.222198,177.25339 570.420732,181.945953 570.420732,187.308883 L570.420732,225.093163 C570.420732,230.456092 569.222198,235.148656 566.825131,239.170854 C564.428064,243.193051 561.055918,246.321427 556.708695,248.555981 C552.361471,250.790535 547.181368,251.907812 541.168386,251.907812 Z M541.168386,236.062792 C544.824929,236.062792 547.567337,235.108028 549.395608,233.1985 C551.22388,231.288972 552.138016,228.587193 552.138016,225.093163 L552.138016,187.308883 C552.138016,183.733597 551.244194,181.011503 549.456551,179.142604 C547.668907,177.273704 544.906186,176.339254 541.168386,176.339254 C537.430587,176.339254 534.667865,177.273704 532.880222,179.142604 C531.092579,181.011503 530.198757,183.733597 530.198757,187.308883 L530.198757,225.093163 C530.198757,228.587193 531.112893,231.288972 532.941164,233.1985 C534.769436,235.108028 537.511843,236.062792 541.168386,236.062792 Z" id="Shape"></path>
                    <path d="M585.656328,250.688965 L585.656328,161.713081 L614.299249,161.713081 C620.637257,161.713081 626.122072,162.810044 630.753694,165.00397 C635.385315,167.197896 638.980916,170.326272 641.540496,174.389098 C644.100076,178.451923 645.379866,183.246058 645.379866,188.771501 C645.379866,194.540713 643.978191,199.700502 641.174842,204.250867 C638.371492,208.801231 634.57275,212.09212 629.778615,214.123533 L646.598714,250.688965 L626.731496,250.688965 L612.349093,217.048768 L603.817159,217.048768 L603.817159,250.688965 L585.656328,250.688965 Z M603.817159,201.203747 L614.299249,201.203747 C618.362075,201.203747 621.510765,200.188041 623.745319,198.156628 C625.979873,196.125215 627.09715,193.281237 627.09715,189.624694 C627.09715,185.805638 625.979873,182.839775 623.745319,180.727106 C621.510765,178.614436 618.362075,177.558102 614.299249,177.558102 L603.817159,177.558102 L603.817159,201.203747 Z" id="Shape"></path>
                </g>
            </g>
        </g>
    </g>
</svg>