<svg height="640" viewBox="0 0 1372 640" width="1372" xmlns="http://www.w3.org/2000/svg" xmlns:xlink="http://www.w3.org/1999/xlink"><linearGradient id="a" x1="50%" x2="50%" y1="58.853906%" y2="158.853906%"><stop offset="0" stop-color="#fefefe"/><stop offset=".525895979" stop-color="#fefefe"/><stop offset="1" stop-color="#fefefe"/></linearGradient><g fill="none" fill-rule="evenodd"><path d="m0 0h1372v640h-1372z" fill="#272727"/><g transform="translate(136 131)"><path d="m94.6401466 0c-52.1801566 0-94.6401466 42.4586046-94.6401466 94.6219553v189.3165847c0 52.14382 42.4586273 94.585618 94.6401466 94.585618h189.2983714c52.143819 0 94.585618-42.44089 94.585618-94.603786v-189.2984167c0-52.161988-42.440891-94.6219553-94.603787-94.6219553z" fill="#2f3a3e"/><path d="m274.779115 160.066763h-.724024c0-46.693985-38.03545-84.729435-84.729435-84.729435s-84.729435 38.03545-84.729435 84.729435h-.724024c-11.7912057 0-21.1848858 9.628618-21.1848858 21.184886v101.346023c0 11.791206 9.6286184 21.184886 21.1848858 21.184886h170.907977c11.791206 0 21.184886-9.628618 21.184886-21.184886v-101.346023c.235076-11.791206-9.393439-21.184886-21.184886-21.184886zm-67.645859 103.507648c.479554 1.68313 0 3.610732-.959106 5.058876-1.203578 1.448048-2.88666 2.162684-4.569743 2.162684h-24.560198c-1.927601 0-3.366165-.724024-4.569742-2.162684-1.203578-1.448048-1.448048-3.366165-.959107-5.058876l7.936148-30.568457c-6.741959-3.610731-11.311701-10.587628-11.311701-18.777731 0-11.791206 9.628619-21.184886 21.184886-21.184886 11.556268 0 21.184887 9.628618 21.184887 21.184886 0 8.180474-4.569743 15.167-11.311701 18.777731zm38.03545-103.507648h-111.687159c0-30.813986 25.029594-55.84358 55.84358-55.84358s55.843579 25.029594 55.843579 55.84358z" fill="url(#a)" fill-rule="nonzero"/></g><g fill="#fff" fill-rule="nonzero" transform="translate(589.401286 194.201391)"><path d="m.73130863 90.1947311v-88.97588338h30.34930817c6.2567516 0 11.7180781 1.17060166 16.3839795 3.51180498s8.2818163 5.6320922 10.8477447 9.8726665c2.5659284 4.2405744 3.8488926 9.2061092 3.8488926 14.8966044 0 5.6041603-1.3001043 10.5392239-3.9003127 14.8051909-2.6002085 4.265967-6.2097752 7.57717-10.8287002 9.9336089s-10.0694596 3.5346584-16.3516039 3.5346584h-12.0665924v32.4213493zm18.28271577-48.2663696h12.0665924c3.8723807 0 6.9734594-1.1782195 9.3032361-3.5346584 2.3297766-2.3564389 3.4946649-5.3077009 3.4946649-8.853786 0-3.6044882-1.1648883-6.5849518-3.4946649-8.9413907-2.3297767-2.3564389-5.4308554-3.5346584-9.3032361-3.5346584h-12.0665924z"/><path d="m68.864896 90.1947311 21.8173741-88.97588338h23.1581069l22.061143 88.97588338h-18.64837l-4.265967-20.1109874h-21.2079499l-4.265967 20.1109874zm25.9614564-34.73716h14.9918266l-4.265967-21.4517198c-.568795-3.0877475-1.157905-6.155181-1.767329-9.2023003s-1.076649-5.4238723-1.401675-7.1302591c-.325026 1.7063868-.751623 4.0628257-1.27979 7.0693168-.528167 3.006491-1.117277 6.0536103-1.7673291 9.1413578z"/><path d="m175.514071 91.4135788c-6.256751 0-11.700938-1.0563347-16.332559-3.1690041s-8.206908-5.0785321-10.72586-8.8975883-3.778428-8.3287928-3.778428-13.5292097h18.282716c0 3.0064911 1.157905 5.3832441 3.473716 7.1302592 2.31581 1.747015 5.4645 2.6205226 9.44607 2.6205226 3.819056 0 6.805233-.8531935 8.95853-2.5595803 2.153298-1.7063868 3.229947-4.0628257 3.229947-7.0693167 0-2.6002085-.812565-4.8347626-2.437696-6.7036625-1.62513-1.8688998-3.900312-3.1283758-6.825547-3.7784279l-9.019473-2.0720411c-7.556856-1.7876433-13.427639-5.0988463-17.61235-9.9336089-4.18471-4.8347626-6.277065-10.746174-6.277065-17.7342343 0-7.8006254 2.640836-14.0370628 7.92251-18.70931243 5.281673-4.67224958 12.432247-7.00837437 21.45172-7.00837437 9.100729 0 16.312245 2.25486828 21.634547 6.76460483 5.322301 4.50973657 7.983452 10.58366097 7.983452 18.22177337h-18.282716c0-2.843978-.995392-5.0785322-2.986176-6.7036624-1.990785-1.6251303-4.855077-2.4376955-8.592877-2.4376955-3.49403 0-6.175495.8125652-8.044395 2.4376955-1.8689 1.6251302-2.80335 4.0221974-2.80335 7.1912015 0 2.3564389.792251 4.4487942 2.376754 6.2770657 1.584502 1.8282716 3.879998 3.0674334 6.886489 3.7174856l8.897588 2.0720411c7.881882 1.7876433 13.854236 5.0175898 17.917062 9.6898393 4.062826 4.6722496 6.094238 10.6242893 6.094238 17.8561191 0 5.2004169-1.27979 9.79141-3.83937 13.7729792s-6.134867 7.0693167-10.72586 9.2632426-10.014865 3.2908889-16.271617 3.2908889z"/><path d="m248.644934 91.4135788c-6.256751 0-11.700938-1.0563347-16.332559-3.1690041s-8.206908-5.0785321-10.72586-8.8975883-3.778428-8.3287928-3.778428-13.5292097h18.282716c0 3.0064911 1.157905 5.3832441 3.473716 7.1302592 2.31581 1.747015 5.4645 2.6205226 9.44607 2.6205226 3.819056 0 6.805233-.8531935 8.95853-2.5595803 2.153298-1.7063868 3.229947-4.0628257 3.229947-7.0693167 0-2.6002085-.812565-4.8347626-2.437696-6.7036625-1.62513-1.8688998-3.900312-3.1283758-6.825547-3.7784279l-9.019473-2.0720411c-7.556856-1.7876433-13.427639-5.0988463-17.61235-9.9336089-4.18471-4.8347626-6.277065-10.746174-6.277065-17.7342343 0-7.8006254 2.640836-14.0370628 7.92251-18.70931243 5.281673-4.67224958 12.432247-7.00837437 21.45172-7.00837437 9.100729 0 16.312245 2.25486828 21.634547 6.76460483 5.322301 4.50973657 7.983452 10.58366097 7.983452 18.22177337h-18.282716c0-2.843978-.995392-5.0785322-2.986176-6.7036624-1.990785-1.6251303-4.855077-2.4376955-8.592877-2.4376955-3.49403 0-6.175495.8125652-8.044395 2.4376955-1.8689 1.6251302-2.80335 4.0221974-2.80335 7.1912015 0 2.3564389.792252 4.4487942 2.376754 6.2770657 1.584502 1.8282716 3.879998 3.0674334 6.886489 3.7174856l8.897588 2.0720411c7.881882 1.7876433 13.854236 5.0175898 17.917062 9.6898393 4.062826 4.6722496 6.094238 10.6242893 6.094238 17.8561191 0 5.2004169-1.27979 9.79141-3.83937 13.7729792s-6.134867 7.0693167-10.72586 9.2632426-10.014865 3.2908889-16.271617 3.2908889z"/><path d="m294.717378 90.1947311-8.288165-88.97588338h14.991827l4.509737 59.47976858c.081256 1.1375912.162513 2.7424074.243769 4.8144485.081257 2.0720411.182828 4.2253387.304712 6.4598929.121885 2.2345541.182828 4.2456529.182828 6.0332962.162513-1.7876433.34534-3.7987421.548481-6.0332962.203141-2.2345542.426597-4.3878518.670366-6.4598929.24377-2.0720411.406283-3.6768573.487539-4.8144485l6.581778-59.47976858h13.894864l6.338008 59.47976858c.162513 1.1375912.34534 2.7424074.548482 4.8144485.203141 2.0720411.44691 4.2253387.731308 6.4598929.284398 2.2345541.507853 4.2456529.670367 6.0332962.081256-1.7876433.162513-3.7987421.243769-6.0332962.081257-2.2345542.162513-4.3878518.24377-6.4598929.081256-2.0720411.162513-3.6768573.243769-4.8144485l4.144082-59.47976858h15.113712l-8.897588 88.97588338h-19.014025l-5.972353-59.1141143c-.162513-1.3813608-.325027-3.1893182-.48754-5.4238724-.162513-2.2345541-.325026-4.5706789-.487539-7.0083743-.162513-2.4376955-.325026-4.5909931-.487539-6.4598929-.081256 1.8688998-.203141 4.0221974-.365654 6.4598929-.162513 2.4376954-.325026 4.7738202-.487539 7.0083743-.162513 2.2345542-.325026 4.0425116-.487539 5.4238724l-6.581778 59.1141143z"/><path d="m394.90666 91.4135788c-5.931725 0-11.091514-1.1172771-15.479366-3.3518313-4.387851-2.2345541-7.780311-5.3629299-10.177378-9.3851274-2.397067-4.0221974-3.595601-8.7147611-3.595601-14.0776911v-37.7842792c0-5.36293 1.198534-10.0554937 3.595601-14.0776912 2.397067-4.02219742 5.789527-7.15057323 10.177378-9.38512738 4.387852-2.23455415 9.547641-3.35183122 15.479366-3.35183122 6.012982 0 11.193085 1.11727707 15.540309 3.35183122 4.347223 2.23455415 7.719369 5.36292996 10.116436 9.38512738 2.397067 4.0221975 3.5956 8.7147612 3.5956 14.0776912v37.7842792c0 5.36293-1.198533 10.0554937-3.5956 14.0776911-2.397067 4.0221975-5.769213 7.1505733-10.116436 9.3851274-4.347224 2.2345542-9.527327 3.3518313-15.540309 3.3518313zm0-15.8450203c3.656543 0 6.398951-.9547641 8.227222-2.8642922 1.828272-1.9095281 2.742408-4.6113072 2.742408-8.1053373v-37.7842792c0-3.5752867-.893822-6.2973799-2.681465-8.1662797-1.787644-1.8688999-4.550365-2.8033498-8.288165-2.8033498-3.737799 0-6.500521.9344499-8.288164 2.8033498-1.787644 1.8688998-2.681465 4.590993-2.681465 8.1662797v37.7842792c0 3.4940301.914136 6.1958092 2.742407 8.1053373 1.828272 1.9095281 4.570679 2.8642922 8.227222 2.8642922z"/><path d="m439.394602 90.1947311v-88.97588338h28.642921c6.338008 0 11.822823 1.09696294 16.454444 3.29088883 4.631622 2.19392589 8.227223 5.3223017 10.786803 9.38512745 2.55958 4.0628257 3.83937 8.85696 3.83937 14.382403 0 5.7692126-1.401675 10.9290012-4.205025 15.479366-2.803349 4.5503648-6.602091 7.8412537-11.396226 9.8726665l16.820099 36.5654316h-19.867218l-14.382403-33.640197h-8.531934v33.640197zm18.160831-49.4852174h10.48209c4.062826 0 7.211516-1.0157064 9.44607-3.0471192 2.234554-2.0314129 3.351831-4.8753909 3.351831-8.5319341 0-3.8190561-1.117277-6.7849189-3.351831-8.8975883s-5.383244-3.1690041-9.44607-3.1690041h-10.48209z"/><path d="m512.281695 90.1947311v-88.97588338h28.886691c6.175495 0 11.55874 1.17821946 16.149733 3.53465838s8.166279 5.6676419 10.725859 9.9336089c2.559581 4.265967 3.839371 9.2835568 3.839371 15.0527693v31.8119254c0 5.687956-1.27979 10.6852317-3.839371 14.9918269-2.55958 4.3065953-6.134866 7.6584265-10.725859 10.0554937s-9.974238 3.5956008-16.149733 3.5956008zm18.282716-16.4544442h10.603975c3.656543 0 6.64272-1.1375912 8.958531-3.4127736s3.473716-5.200417 3.473716-8.7757036v-31.8119254c0-3.5752866-1.157905-6.480207-3.473716-8.7147612-2.315811-2.2345541-5.301988-3.3518312-8.958531-3.3518312h-10.603975z"/><path d="m29.8008267 251.907812c-5.9723538 0-11.1930849-1.117277-15.6621932-3.351831-4.46910828-2.234554-7.94282427-5.36293-10.42114796-9.385127-2.47832369-4.022198-3.71748554-8.714762-3.71748554-14.077691v-37.78428c0-5.444186 1.23916185-10.157064 3.71748554-14.138633s5.95203968-7.089631 10.42114796-9.324185c4.4691083-2.234554 9.6898394-3.351831 15.6621932-3.351831s11.1727707 1.117277 15.6012508 3.351831c4.42848 2.234554 7.8818819 5.333411 10.3602056 9.29657 2.4783236 3.96316 3.7174855 8.685242 3.7174855 14.166248h-18.2827158c0-3.575286-1.0030101-6.29738-3.0090303-8.166279-2.0060202-1.8689-4.829684-2.80335-8.4709916-2.80335s-6.4573536.942702-8.4481382 2.828107c-1.9907846 1.885406-2.9861769 4.599246-2.9861769 8.141522v37.78428c0 3.487681.9953923 6.187874 2.9861769 8.100576s4.8068306 2.869053 8.4481382 2.869053 6.4649714-.960795 8.4709916-2.882384c2.0060202-1.92159 3.0090303-4.633844 3.0090303-8.136761v-7.629225h-13.1635553v-15.479366h31.4462711v23.158107c0 5.39721-1.2391619 10.098343-3.7174855 14.103401-2.4783237 4.005057-5.9317256 7.124863-10.3602056 9.359417-4.4284801 2.234554-9.628897 3.351831-15.6012508 3.351831z"/><path d="m75.5685585 250.688965v-88.975884h54.8481475v15.845021h-36.9310861v19.989102h32.6651191v15.113712h-32.6651191v22.183028h36.9310861v15.845021z"/><path d="m146.261726 250.688965v-88.975884h21.329835l23.036222 68.864896c-.24377-3.006491-.528167-6.480207-.853193-10.421148-.325027-3.940941-.58911-7.881882-.792251-11.822823-.203142-3.940941-.304712-7.292772-.304712-10.055493v-36.565432h16.088789v88.975884h-21.329835l-22.792452-68.864896c.24377 2.600208.487539 5.687956.731309 9.263242.243769 3.575287.467225 7.191202.670366 10.847745s.304712 6.906804.304712 9.750782v39.003127z"/><path d="m221.830284 250.688965v-88.975884h54.848148v15.845021h-36.931086v19.989102h32.665119v15.113712h-32.665119v22.183028h36.931086v15.845021z"/><path d="m293.132876 250.688965v-88.975884h28.642921c6.338008 0 11.822823 1.096963 16.454444 3.290889 4.631622 2.193926 8.227223 5.322302 10.786803 9.385128 2.55958 4.062825 3.83937 8.85696 3.83937 14.382403 0 5.769212-1.401675 10.929001-4.205025 15.479366-2.803349 4.550364-6.602091 7.841253-11.396226 9.872666l16.820099 36.565432h-19.867218l-14.382403-33.640197h-8.531934v33.640197zm18.160831-49.485218h10.48209c4.062826 0 7.211516-1.015706 9.44607-3.047119s3.351831-4.875391 3.351831-8.531934c0-3.819056-1.117277-6.784919-3.351831-8.897588-2.234554-2.11267-5.383244-3.169004-9.44607-3.169004h-10.48209z"/><path d="m361.388348 250.688965 21.817374-88.975884h23.158107l22.061144 88.975884h-18.648371l-4.265967-20.110988h-21.20795l-4.265967 20.110988zm25.961456-34.73716h14.991827l-4.265967-21.45172c-.568795-3.087748-1.157905-6.155181-1.767329-9.2023-.609424-3.04712-1.076649-5.423873-1.401675-7.13026-.325026 1.706387-.751622 4.062826-1.27979 7.069317-.528167 3.006491-1.117277 6.053611-1.767329 9.141358z"/><path d="m458.896165 250.688965v-72.52144h-22.548682v-16.454444h63.380081v16.454444h-22.548683v72.52144z"/><path d="m541.168386 251.907812c-5.931725 0-11.091514-1.117277-15.479366-3.351831-4.387851-2.234554-7.780311-5.36293-10.177378-9.385127-2.397067-4.022198-3.595601-8.714762-3.595601-14.077691v-37.78428c0-5.36293 1.198534-10.055493 3.595601-14.077691 2.397067-4.022197 5.789527-7.150573 10.177378-9.385127 4.387852-2.234554 9.547641-3.351831 15.479366-3.351831 6.012982 0 11.193085 1.117277 15.540309 3.351831 4.347223 2.234554 7.719369 5.36293 10.116436 9.385127 2.397067 4.022198 3.595601 8.714761 3.595601 14.077691v37.78428c0 5.362929-1.198534 10.055493-3.595601 14.077691-2.397067 4.022197-5.769213 7.150573-10.116436 9.385127-4.347224 2.234554-9.527327 3.351831-15.540309 3.351831zm0-15.84502c3.656543 0 6.398951-.954764 8.227222-2.864292 1.828272-1.909528 2.742408-4.611307 2.742408-8.105337v-37.78428c0-3.575286-.893822-6.29738-2.681465-8.166279-1.787644-1.8689-4.550365-2.80335-8.288165-2.80335-3.737799 0-6.500521.93445-8.288164 2.80335-1.787643 1.868899-2.681465 4.590993-2.681465 8.166279v37.78428c0 3.49403.914136 6.195809 2.742407 8.105337 1.828272 1.909528 4.570679 2.864292 8.227222 2.864292z"/><path d="m585.656328 250.688965v-88.975884h28.642921c6.338008 0 11.822823 1.096963 16.454445 3.290889 4.631621 2.193926 8.227222 5.322302 10.786802 9.385128 2.55958 4.062825 3.83937 8.85696 3.83937 14.382403 0 5.769212-1.401675 10.929001-4.205024 15.479366-2.80335 4.550364-6.602092 7.841253-11.396227 9.872666l16.820099 36.565432h-19.867218l-14.382403-33.640197h-8.531934v33.640197zm18.160831-49.485218h10.48209c4.062826 0 7.211516-1.015706 9.44607-3.047119s3.351831-4.875391 3.351831-8.531934c0-3.819056-1.117277-6.784919-3.351831-8.897588-2.234554-2.11267-5.383244-3.169004-9.44607-3.169004h-10.48209z"/></g></g></svg>